{"title":"The LEGO Ninjago Movie 2017 (1080p x265 10bit Tigole)","magnet":"magnet:?xt=urn:btih:13316dfdcafcb99f3c3aa5693a10963f05bf9efc&dn=The+LEGO+Ninjago+Movie+2017+%281080p+x265+10bit+Tigole%29&tr=udp%3A%2F%2Ftracker.leechers-paradise.org%3A6969&tr=udp%3A%2F%2Fzer0day.ch%3A1337&tr=udp%3A%2F%2Fopen.demonii.com%3A1337&tr=udp%3A%2F%2Ftracker.coppersurfer.tk%3A6969&tr=udp%3A%2F%2Fexodus.desync.com%3A6969","uploader":"UTRplus","categoryP":"video","categoryS":"hd___movies","size":"3922714508","seeders":"65","leechers":"59","description":"General \r\nFormat : Matroska \r\nFormat version : Version 4 / Version 2 \r\nFile size : 2.77 GiB \r\nDuration : 1 h 41 min \r\n\r\nVideo \r\nFormat : HEVC \r\nFormat/Info : High Efficiency Video Coding \r\nFormat profile : Main <a href=\"/cdn-cgi/l/email-protection\" class=\"__cf_email__\" data-cfemail=\"8fbebfcfc3bb\">[email&#xA0;protected]</a>@Main \r\nCodec ID : V_MPEGH/ISO/HEVC \r\nDuration : 1 h 41 min \r\nBit rate : 3 251 kb/s \r\nWidth : 1 920 pixels \r\nHeight : 804 pixels \r\nDisplay aspect ratio : 2.40:1 \r\nFrame rate mode : Constant \r\nFrame rate : 23.976 (24000/1001) FPS \r\nBit depth : 10 bits \r\nStream size : 2.30 GiB (83%)\r\n\r\nAudio #1 \r\nFormat : AAC \r\nFormat/Info : Advanced Audio Codec \r\nFormat profile : LC \r\nCodec ID : A_AAC \r\nDuration : 1 h 41 min \r\nBit rate : 576 kb/s \r\nChannel(s) : 8 channels \r\nChannel positions : Front: L C R, Side: 4, LFE \r\nSampling rate : 48.0 kHz \r\nFrame rate : 46.875 FPS (1024 spf) \r\nStream size : 414 MiB (15%) \r\nLanguage : English \r\nDefault : Yes \r\nForced : No \r\n\r\nAudio #2 \r\nFormat : AAC \r\nFormat/Info : Advanced Audio Codec \r\nFormat profile : HE-AAC / LC \r\nCodec ID : A_AAC \r\nDuration : 1 h 41 min \r\nBit rate : 66.2 kb/s \r\nChannel(s) : 2 channels \r\nChannel positions : Front: L R \r\nSampling rate : 48.0 kHz / 24.0 kHz \r\nFrame rate : 23.438 FPS (1024 spf)  \r\nStream size : 47.8 MiB (2%) \r\nTitle : Commentary \r\nLanguage : English \r\nDefault : No \r\nForced : No","last_updated":"2017-12-16T12:02:01.274Z","parsed":{"xt":"urn:btih:13316dfdcafcb99f3c3aa5693a10963f05bf9efc","dn":"The LEGO Ninjago Movie 2017 (1080p x265 10bit Tigole)","tr":["udp://exodus.desync.com:6969","udp://open.demonii.com:1337","udp://tracker.coppersurfer.tk:6969","udp://tracker.leechers-paradise.org:6969","udp://zer0day.ch:1337"],"infoHash":"13316dfdcafcb99f3c3aa5693a10963f05bf9efc","infoHashBuffer":{"type":"Buffer","data":[19,49,109,253,202,252,185,159,60,58,165,105,58,16,150,63,5,191,158,252]},"name":"The LEGO Ninjago Movie 2017 (1080p x265 10bit Tigole)","announce":["udp://exodus.desync.com:6969","udp://open.demonii.com:1337","udp://tracker.coppersurfer.tk:6969","udp://tracker.leechers-paradise.org:6969","udp://zer0day.ch:1337"],"urlList":[]}}